<?xml version="1.0" encoding="utf-8"?>
<!-- Generator: Adobe Illustrator 26.0.3, SVG Export Plug-In . SVG Version: 6.00 Build 0)  -->
<svg version="1.1" id="Layer_1" xmlns="http://www.w3.org/2000/svg" xmlns:xlink="http://www.w3.org/1999/xlink" x="0px" y="0px"
	 viewBox="0 0 824.39 559.74" style="enable-background:new 0 0 824.39 559.74;" xml:space="preserve">
<style type="text/css">
	.st0{fill:#B94071;}
	.st1{fill:#D8EDF2;}
	.st2{fill:#89C3D5;}
	.st3{fill:#FDC4B9;}
	.st4{fill:#1F416A;}
	.st5{fill:#FEFEFE;}
</style>
<g>
	<path class="st0" d="M367.22,514.1c-7.37,3.41-15.29,5.12-23,7.47c-54.62,16.64-109.27,33.16-163.9,49.75
		c-0.9,0.27-2.04,0.18-2.63,1.2c-48.72,0-97.43,0-146.15,0c-0.52-1.6,0.42-2.92,0.93-4.27c10.66-28.24,29.1-50.17,54.21-66.68
		c13.08-8.6,27.3-14.77,42.09-19.72c0.62,0.02,1.26-0.03,1.87,0.08c12.6,2.32,25.22,4.57,37.8,7.05c4.54,0.9,8.58,1.12,12.64-1.92
		c4.87-3.65,10.46-6.21,15.96-8.84c6.25-2.98,12.79-5.05,19.69-5.05c6.45,0,12.9,0.82,19.35,1.27c4.08,1.05,8.25,1.85,12.24,3.19
		c27.74,9.37,55.24,19.46,83.56,27.05C343.65,507.83,355.29,511.51,367.22,514.1z"/>
	<path class="st1" d="M128.77,481.84c-14.79,4.95-29.01,11.11-42.09,19.72C61.57,518.08,43.13,540,32.47,568.24
		c-0.51,1.35-1.45,2.67-0.93,4.27c-9.62,0-19.24-0.09-28.85,0.07c-2.24,0.04-2.69-0.45-2.69-2.69c0.09-29.85,0.06-59.69,0.06-89.54
		c4.76-2.13,9.54-4.21,14.28-6.39c11.9-5.45,22.76-12.67,33.64-19.86c0.46,2.18,1.07,4.34,1.35,6.55c0.69,5.27,3.86,7.61,8.89,8.43
		c11.49,1.88,22.94,3.95,34.4,6.03C104.68,477.3,116.72,479.59,128.77,481.84z"/>
	<path class="st1" d="M277.41,297.5c-11.32,0.26-22.44,2.34-33.65,3.53c-8.38,0.9-16.78,1.61-25.3,0.4
		c-7.48-1.06-15.1-1.09-22.65-1.69c-7.21-0.57-14.42-0.88-21.64-0.75c-0.7,0.01-1.61,0.27-2.02-0.55c-0.42-0.85,0.43-1.31,0.85-1.88
		c13.07-17.79,27.26-34.63,43.25-49.86c21.21-20.21,44.49-37.63,71.36-49.69c11.06-4.96,21.9-10.24,31.91-17.04
		c11.01-7.49,21.37-15.76,31.2-24.83c10.25-9.45,19.59-19.58,26.54-31.58c6.2-10.71,11.31-22.04,16.99-33.05
		c9.62-18.64,20.1-36.75,35.54-51.31c14.8-13.96,32.35-22.19,52.62-25.05c9.09-1.28,18.14-1.75,27.18-1.22
		c25.85,1.5,50.87,6.39,72.93,21.01c15.17,10.05,26.6,23.41,33.98,40.19c5.63,12.78,8.28,26.12,9.46,39.98
		c2.1,24.65-4.41,47.11-15.7,68.68c-8.47,16.2-19.49,30.6-30.48,45.06c-4.24,5.59-8.34,11.42-9.96,18.25
		c-3.23,13.59,0.04,21.34,10.84,30.22c10.93,8.99,24.26,13.51,37.37,18.27c12.68,4.61,24.88,10.21,36.52,17.05
		c17.2,10.11,33.23,21.92,48.59,34.56c10.27,8.45,20.14,17.41,29.9,26.48c12.63,11.73,24.94,23.79,36.67,36.37
		c11.51,12.34,23.79,24.14,32.86,38.58c3.98,6.34,7.31,12.97,7.67,20.72c0.38,8.17-3.37,14.17-9.72,18.67
		c-8.54,6.05-18.45,8.39-28.63,9.82c-11.05,1.55-22.17,0.68-33.26,0.72c-34.6,0.13-69.21-0.48-103.79,0.16
		c-64.8,1.2-129.59,0.22-194.39,0.64c-3.08,0.02-3.08,0-3.55-1.54c1.06,1.31,2.54,0.78,3.85,0.79c9.87,0.04,19.73,0.02,29.6,0.02
		c13.86,0,27.72,0.01,41.59-0.02c1.63,0,3.64,0.6,3.73-2.27c0.11-3.35,0.46-6.69,0.76-10.04c0.79-8.91,1.4-17.85,2.46-26.73
		c1.18-9.87,1.92-19.78,2.77-29.68c0.6-7.06,1.07-14.13,1.68-21.19c0.91-10.52,1.92-21.03,2.82-31.55
		c0.61-7.18,1.09-14.38,1.67-21.57c1.14-14.27,1.71-28.55-1.07-42.69c-2.46-12.49-8.88-18.9-20.76-20.87
		c-4.52-0.75-9.17-0.8-13.77-0.92c-11.33-0.28-22.64-1.05-33.96-1.4c-19.55-0.59-39.08-1.53-58.62-2.4
		c-7.59-0.34-15.24-0.11-22.77-0.99c-5.21-0.6-10.49,0.23-15.61-1.16c0.19-2.77-0.49-5.61,0.73-8.29
		c18.24-11.39,26.14-32.35,21.47-53.81c-5.54-25.47-33.65-37.93-54.01-30.38c-8.83,3.28-17.97,4.81-27.45,4.63
		c-6.51-0.12-10.47,4.09-10.62,10.44c-0.15,6.2,2.87,10.89,7,15.09c0.5,6.6-1.36,12.99-1.95,19.49c-0.68,7.54-2.18,15.04-2.69,22.65
		c-0.17,2.46,0.73,3.66,2.87,4.31c-0.12,0.6-0.24,1.2-0.36,1.8c0,0.3,0,0.6,0,0.89c0.23,2.07,0.46,4.13,0.7,6.2
		c0,1.82-0.73,1.96-2.55,1.83c-5.27-0.36-10.77-0.35-13.68,5.21C278.62,288.33,277.56,292.84,277.41,297.5z M523.19,178.27
		c-0.04-3.87-3.06-6.76-6.92-6.6c-2.89,0.11-5.79,3.43-5.82,6.65c-0.03,3.31,3.06,6.76,6.3,6.67
		C520.08,184.9,524.02,181.58,523.19,178.27z M700.69,458.63c3.4,0.06,6.7-2.98,6.76-6.23c0.06-3.17-3.25-6.46-6.55-6.51
		c-3.4-0.05-6.65,2.98-6.73,6.26C694.09,455.39,697.29,458.57,700.69,458.63z M461.77,210.02c-0.83-1.36,0.15-4.43-2.74-4.2
		c-1.85,0.15-5.2-0.23-5.14,2.73c0.03,1.7-0.47,5.18,2.52,5.26C458.38,213.85,461.8,214.13,461.77,210.02z M680.67,416.85
		c-1.01-1.45-1.01-4.07-2.79-4.05c-1.7,0.01-2.56,2.27-2.45,4.05c0.1,1.54,0.72,3.79,2.23,3.82
		C679.4,420.7,679.82,418.38,680.67,416.85z"/>
	<path class="st2" d="M47.98,454.1c-1.33-8.45-2.64-16.9-3.99-25.34c-2.65-16.65-5.28-33.31-7.97-49.95
		c-0.91-5.63-1.98-11.23-2.98-16.84c0.14-4.39-1.73-8.5-1.58-12.93c0.21-6.01,2.1-8.21,8.16-7.99c7.07,0.27,14.13,0.86,21.2,1.31
		c16.61,1.11,33.22,2.17,49.82,3.33c15.97,1.12,31.94,2.35,47.91,3.52c0.62,0.05,1.24-0.05,1.86-0.07c3.52,1.67,7.27,0.56,10.9,0.84
		c3.21,0.25,6.31,1.32,6.88,4.48c0.62,3.45,2.39,6.76,1.82,10.42c0.22,1.72,0.43,3.44,0.67,5.16c1.65,11.67,3.35,23.33,4.96,35.01
		c1.63,11.8,3.03,23.64,4.84,35.41c0.9,5.85,0.83,11.86,2.88,17.52c-0.65,4.07,1.76,7.73,1.59,11.74c-0.06,1.57,1.07,1.78,2.28,1.76
		c6.36-0.08,12.75,0.15,19.08-0.34c6.53-0.5,12.75,0.79,19.01,2.1c0.43,0.09,1.39,0.25,0.74,1.2c-6.45-0.46-12.9-1.27-19.35-1.27
		c-6.9,0-13.44,2.07-19.69,5.05c-5.51,2.63-11.09,5.19-15.96,8.84c-4.06,3.04-8.1,2.82-12.64,1.92c-12.57-2.48-25.19-4.73-37.8-7.05
		c-0.61-0.11-1.25-0.06-1.87-0.08c-12.05-2.25-24.1-4.54-36.16-6.74c-11.45-2.08-22.91-4.15-34.4-6.03
		c-5.03-0.82-8.2-3.16-8.89-8.43C49.04,458.45,48.44,456.29,47.98,454.1z"/>
	<path class="st2" d="M361.29,284.17c5.12,1.39,10.4,0.55,15.61,1.16c7.53,0.87,15.17,0.65,22.77,0.99
		c19.54,0.87,39.07,1.8,58.62,2.4c11.32,0.34,22.63,1.12,33.96,1.4c4.6,0.11,9.25,0.16,13.77,0.92c11.89,1.98,18.3,8.38,20.76,20.87
		c2.78,14.14,2.21,28.42,1.07,42.69c-0.57,7.19-1.05,14.38-1.67,21.57c-0.9,10.52-1.91,21.03-2.82,31.55
		c-0.61,7.06-1.07,14.13-1.68,21.19c-0.85,9.9-1.58,19.8-2.77,29.68c-1.06,8.88-1.67,17.81-2.46,26.73
		c-0.3,3.34-0.65,6.69-0.76,10.04c-0.09,2.88-2.09,2.27-3.73,2.27c-13.86,0.03-27.72,0.02-41.59,0.02c-9.87,0-19.73,0.02-29.6-0.02
		c-1.3-0.01-2.79,0.52-3.85-0.79c5.83-9.84,8.76-20.36,9.21-31.9c0.84-21.71,0.52-43.41,0.46-65.12
		c-0.05-17.07-2.39-33.86-10.33-49.27c-9.74-18.9-24.65-31.59-46.1-34.81c-6.1-0.92-7.59-4.24-8.65-8.92
		c-0.66-2.89-1.54-3.68-4.22-1.48c-3.07,2.52-6.57,4.5-9.89,6.71C358,305.92,358.46,292.13,361.29,284.17z"/>
	<path class="st3" d="M236.08,474.43c0.65-0.94-0.31-1.11-0.74-1.2c-6.26-1.32-12.48-2.6-19.01-2.1
		c-6.33,0.48-12.72,0.26-19.08,0.34c-1.21,0.01-2.34-0.19-2.28-1.76c0.17-4.01-2.25-7.67-1.59-11.74c-0.78-4.38,0.94-7.27,5.09-8.88
		c1.36-0.53,2.51-1.57,3.84-2.2c5.14-2.42,9.97-5.46,16.02-5.64c5.61-0.16,10,2.82,14.89,4.55c11.1,5.28,22.23,10.51,33.3,15.86
		c3.36,1.62,7.02,1.88,10.53,2.06c9.94,0.49,19.85,1.4,29.8,1.9c15.97,0.8,31.92,0.48,47.88,0.41c10.19-0.05,20.38-1.15,30.57-1.29
		c6.22-0.09,12.3,1.28,17.82,4.52c8.21,4.81,10.46,13.14,12.86,21.4c0.21,0.71,0.2,1.48,0.35,2.21c1.2,5.91,0.52,6.8-5.15,8.47
		c-13.57,4-27.1,8.18-40.65,12.25c-1.05,0.32-2.19,0.36-3.29,0.53c-11.93-2.59-23.57-6.27-35.35-9.43
		c-28.32-7.59-55.82-17.68-83.56-27.05C244.33,476.28,240.16,475.48,236.08,474.43z"/>
	<path class="st1" d="M233.21,445.8c-4.89-1.73-9.28-4.71-14.89-4.55c-6.05,0.17-10.88,3.22-16.02,5.64
		c-1.33,0.63-2.48,1.67-3.84,2.2c-4.15,1.61-5.88,4.5-5.09,8.88c-2.05-5.66-1.98-11.67-2.88-17.52
		c-1.81-11.77-3.21-23.61-4.84-35.41c-1.61-11.67-3.31-23.34-4.96-35.01c-0.24-1.72-0.45-3.44-0.68-5.16
		c1.51-0.12,2.62,0.77,3.63,1.65c2.39,2.08,5.38,3.04,8.28,3.55c3.78,0.66,4.52-3.19,6.24-5.45c0.58-0.76,1.28-1.15,2.21-1.16
		c2.82-0.05,5.7-0.39,8.1,1.64c-0.26,3.8,6.95,9.73,10.57,10.19c3.56,0.45,7.23,0.09,10.84,0c0.33-0.01,0.65-0.64,0.97-0.98
		c6.14-1.84,7.92-6.94,9.23-12.38c5.26,5.91,8.21,13.07,10.22,20.5c6.11,22.48-1.85,41.71-14.54,59.7
		C234.91,443.35,234.06,444.58,233.21,445.8z"/>
	<path class="st3" d="M361.29,284.17c-2.83,7.96-3.29,21.75,6.12,27.86c-5.8,3.93-12.18,6.56-18.99,8.08
		c-2.93,0.66-4.49,1.7-3.04,5.01c1.41,3.21,0.62,4.95-3.29,5.76c-4.46,0.93-6.82,4.79-8.57,8.75c-3.47,7.87-8.46,14.87-12.71,22.3
		c-0.29,0.51-0.76,0.92-1.16,1.39c-1.44-0.78-1.44-2.14-1.7-3.27c-2.05-8.69-4.01-17.39-6.03-26.08c-0.71-3.06-1.87-5.94-4.17-8.17
		c-1.86-1.8-0.36-3.54,0.08-5.14c1.69-6.17,1.79-6.15-3.58-8.89c0.66-1.1,0.57-2.39,0.88-3.56c1.22-4.51-0.24-9.43,2.16-13.73
		c10.19,5.32,20.12,4.55,29.73-1.46c8.4-5.25,13.86-13.04,18.31-21.67c0.91-1.76,1.62-3.68,3.33-4.87c1.08-0.76,2.42-1.02,3.55-0.4
		c1.08,0.59,0.42,1.81,0.31,2.74c-0.28,2.34-0.86,4.65-0.5,7.04C360.8,278.56,361.49,281.4,361.29,284.17z"/>
	<path class="st3" d="M208.47,365.1c-2.4-2.03-5.28-1.69-8.1-1.64c-0.92,0.02-1.62,0.4-2.21,1.16c-1.73,2.25-2.46,6.11-6.24,5.45
		c-2.9-0.51-5.89-1.47-8.28-3.55c-1.01-0.88-2.12-1.77-3.63-1.65c0.58-3.66-1.2-6.96-1.82-10.42c-0.56-3.16-3.67-4.23-6.88-4.48
		c-3.63-0.28-7.38,0.83-10.9-0.84c0.92-7.1,3.32-13.48,8.93-18.3c3.12-2.68,6.57-4.38,10.83-3.65c1.57,0.27,2.56-0.7,3.6-1.58
		c4.87-4.13,15.2-3.49,19.46,1.15c1.37,1.49,0.71,3.33,1.01,4.98c0.87,4.74,1.55,9.53,1.93,14.33c0.36,4.55-2.93,1.08-4.37,1.74
		c-1.22-0.58-2.45-1.14-3.64-1.76c-1.13-0.59-1.87-0.49-2.01,0.95c-0.48-0.11-0.63-1.54-1.18-0.64c-1.04,1.71-1.71,3.64,1.58,3.67
		c1.36,2.14,3.92,1.82,5.83,2.82c3.6,0.42,5.22,2.42,5.6,6.06C208.21,360.97,208.55,363.01,208.47,365.1z"/>
	<path class="st3" d="M240.08,361.93c-1.31,5.44-3.09,10.54-9.23,12.38c-5.31,1.42-9.85,0.56-12.7-4.61
		c-1.62-2.94-1.92-6.41-2.24-9.59c-1.02-10.33-2.74-20.56-3.94-30.86c-0.06-0.48,0.07-0.98,0.1-1.47
		c10.77-1.01,21.68,0.98,32.38-1.5c0.46,6.77-1.81,13.23-2.34,19.88C241.7,351.45,239.65,356.53,240.08,361.93z"/>
	<path class="st2" d="M307.3,294.5c-2.4,4.3-0.95,9.22-2.16,13.73c-0.32,1.17-0.23,2.46-0.88,3.56c-3.94-1.77-7.14-4.48-9.8-7.83
		c-0.53-0.67-1.34-1.5-1.29-2.2c0.34-4.19-2.63-4.04-5.3-4.15c-3.48-0.14-6.97-0.08-10.45-0.11c0.15-4.66,1.21-9.17,3.34-13.25
		c2.91-5.57,8.41-5.57,13.68-5.21c1.81,0.12,2.55-0.01,2.55-1.83C298.74,283.97,301.22,290.31,307.3,294.5z"/>
	<path class="st0" d="M244.46,326.27c-10.7,2.48-21.61,0.49-32.38,1.5c-2.1-1.32-4.66-0.59-6.85-1.55
		c-0.51-0.23-1.32,0.02-1.37-0.87c-0.05-0.88,0.65-0.89,1.26-0.99c1.71-0.29,3.42-0.74,5.14-0.85c9.82-0.61,19.66-0.49,29.46,0.23
		C241.38,323.86,244.23,322.99,244.46,326.27z"/>
	<path class="st0" d="M196.17,347c0.14-1.44,0.87-1.54,2.01-0.95c1.2,0.62,2.43,1.17,3.64,1.76c0.24,1.68,1.17,3.27,0.58,5.04
		c-1.91-1-4.47-0.68-5.83-2.82C196.43,349.02,196.3,348.01,196.17,347z"/>
	<path class="st4" d="M307.3,294.5c-6.08-4.19-8.55-10.53-10.32-17.3c-0.23-2.07-0.46-4.13-0.69-6.2c0.06-0.09,0.18-0.19,0.17-0.28
		c-0.03-0.21-0.11-0.41-0.17-0.62c0.12-0.6,0.24-1.2,0.36-1.8c10.8-1.53,21.54-1.18,32.32,0.56c5.01,0.81,9.33-1.5,12.49-5.39
		c4.75-5.86,7.53-12.65,7.63-20.22c0.12-8.95-1.54-17.29-10.9-21.45c-7.87-3.5-16.12-4.73-24.76-4.02c-5.32,0.44-10.04,2.6-15,4.08
		c-4.13-4.19-7.15-8.89-7-15.09c0.15-6.36,4.11-10.57,10.62-10.44c9.48,0.18,18.62-1.36,27.45-4.63
		c20.36-7.55,48.46,4.92,54.01,30.38c4.67,21.45-3.23,42.42-21.47,53.81c-0.37-2.38,0.22-4.7,0.5-7.04
		c0.11-0.93,0.77-2.15-0.31-2.74c-1.13-0.62-2.46-0.36-3.55,0.4c-1.71,1.19-2.42,3.11-3.33,4.87c-4.45,8.62-9.91,16.41-18.31,21.67
		C327.42,299.05,317.49,299.83,307.3,294.5z M359.61,251.31c0.03,2.29-0.04,4.03,0.7,5.67c1.2,2.68,3.24,3.3,5.24,1.24
		c3.61-3.72,6.06-8.13,6.43-13.45c0.17-2.42-0.52-4.48-3.02-5.38c-2.47-0.88-4.34,0.31-5.85,2.13
		C360.65,244.52,359.63,248.03,359.61,251.31z"/>
	<path class="st3" d="M298.41,221.86c4.96-1.48,9.68-3.64,15-4.08c8.65-0.71,16.89,0.51,24.76,4.02c9.36,4.16,11.02,12.5,10.9,21.45
		c-0.1,7.58-2.88,14.36-7.63,20.22c-3.16,3.89-7.48,6.2-12.49,5.39c-10.78-1.74-21.51-2.09-32.32-0.56
		c-2.14-0.65-3.03-1.85-2.87-4.31c0.51-7.61,2.01-15.11,2.69-22.65C297.05,234.85,298.91,228.45,298.41,221.86z"/>
	<path class="st3" d="M296.28,270.11c0.06,0.21,0.15,0.41,0.17,0.62c0.01,0.09-0.11,0.19-0.17,0.28
		C296.28,270.71,296.28,270.41,296.28,270.11z"/>
	<path class="st5" d="M196.17,347c0.13,1.01,0.26,2.02,0.4,3.03c-3.28-0.03-2.62-1.96-1.58-3.67
		C195.54,345.46,195.69,346.89,196.17,347z"/>
	<path class="st3" d="M359.61,251.31c0.02-3.28,1.04-6.8,3.5-9.78c1.5-1.82,3.37-3.01,5.85-2.13c2.5,0.89,3.19,2.95,3.02,5.38
		c-0.37,5.32-2.82,9.73-6.43,13.45c-2,2.06-4.03,1.43-5.24-1.24C359.57,255.34,359.64,253.6,359.61,251.31z"/>
</g>
</svg>
